<?xml version="1.0" encoding="UTF-8" standalone="no"?>
<svg
   xmlns:dc="http://purl.org/dc/elements/1.1/"
   xmlns:cc="http://creativecommons.org/ns#"
   xmlns:rdf="http://www.w3.org/1999/02/22-rdf-syntax-ns#"
   xmlns:svg="http://www.w3.org/2000/svg"
   xmlns="http://www.w3.org/2000/svg"
   xmlns:sodipodi="http://sodipodi.sourceforge.net/DTD/sodipodi-0.dtd"
   xmlns:inkscape="http://www.inkscape.org/namespaces/inkscape"
   inkscape:version="1.0 (4035a4f, 2020-05-01)"
   sodipodi:docname="github-icon.svg"
   id="svg837"
   version="1.1"
   style="-ms-transform: rotate(360deg); -webkit-transform: rotate(360deg); transform: rotate(360deg);"
   viewBox="0 0 64 64"
   preserveAspectRatio="xMidYMid meet"
   height="64"
   width="64">
  <metadata
     id="metadata843">
    <rdf:RDF>
      <cc:Work
         rdf:about="">
        <dc:format>image/svg+xml</dc:format>
        <dc:type
           rdf:resource="http://purl.org/dc/dcmitype/StillImage" />
      </cc:Work>
    </rdf:RDF>
  </metadata>
  <defs
     id="defs841" />
  <sodipodi:namedview
     inkscape:current-layer="svg837"
     inkscape:window-maximized="0"
     inkscape:window-y="23"
     inkscape:window-x="0"
     inkscape:cy="54.994012"
     inkscape:cx="32"
     inkscape:zoom="10.4375"
     showgrid="false"
     id="namedview839"
     inkscape:window-height="852"
     inkscape:window-width="1354"
     inkscape:pageshadow="2"
     inkscape:pageopacity="0"
     guidetolerance="10"
     gridtolerance="10"
     objecttolerance="10"
     borderopacity="1"
     bordercolor="#666666"
     pagecolor="#ffffff" />
  <path
     id="path833"
     d="M32 0C14 0 0 14 0 32c0 21 19 30 22 30c2 0 2-1 2-2v-5c-7 2-10-2-11-5c0 0 0-1-2-3c-1-1-5-3-1-3c3 0 5 4 5 4c3 4 7 3 9 2c0-2 2-4 2-4c-8-1-14-4-14-15c0-4 1-7 3-9c0 0-2-4 0-9c0 0 5 0 9 4c3-2 13-2 16 0c4-4 9-4 9-4c2 7 0 9 0 9c2 2 3 5 3 9c0 11-7 14-14 15c1 1 2 3 2 6v8c0 1 0 2 2 2c3 0 22-9 22-30C64 14 50 0 32 0z"
     fill="#ef4857" />
</svg>
