<?xml version="1.0" encoding="UTF-8" standalone="no"?>
<svg
   xmlns:dc="http://purl.org/dc/elements/1.1/"
   xmlns:cc="http://creativecommons.org/ns#"
   xmlns:rdf="http://www.w3.org/1999/02/22-rdf-syntax-ns#"
   xmlns:svg="http://www.w3.org/2000/svg"
   xmlns="http://www.w3.org/2000/svg"
   xmlns:sodipodi="http://sodipodi.sourceforge.net/DTD/sodipodi-0.dtd"
   xmlns:inkscape="http://www.inkscape.org/namespaces/inkscape"
   inkscape:version="1.0 (4035a4f, 2020-05-01)"
   sodipodi:docname="instagram-icon.svg"
   id="svg835"
   version="1.1"
   clip-rule="evenodd"
   fill-rule="evenodd"
   image-rendering="optimizeQuality"
   text-rendering="geometricPrecision"
   shape-rendering="geometricPrecision"
   viewBox="0 0 3333 3333">
  <metadata
     id="metadata841">
    <rdf:RDF>
      <cc:Work
         rdf:about="">
        <dc:format>image/svg+xml</dc:format>
        <dc:type
           rdf:resource="http://purl.org/dc/dcmitype/StillImage" />
      </cc:Work>
    </rdf:RDF>
  </metadata>
  <defs
     id="defs839" />
  <sodipodi:namedview
     inkscape:current-layer="svg835"
     inkscape:window-maximized="0"
     inkscape:window-y="23"
     inkscape:window-x="0"
     inkscape:cy="1666.5"
     inkscape:cx="1666.5"
     inkscape:zoom="0.20042004"
     showgrid="false"
     id="namedview837"
     inkscape:window-height="859"
     inkscape:window-width="1443"
     inkscape:pageshadow="2"
     inkscape:pageopacity="0"
     guidetolerance="10"
     gridtolerance="10"
     objecttolerance="10"
     borderopacity="1"
     bordercolor="#666666"
     pagecolor="#ffffff" />
  <path
     style="opacity:0.959;fill:#ef4857;fill-opacity:1"
     id="path833"
     d="M1667 0c920 0 1667 746 1667 1667 0 920-746 1667-1667 1667C747 3334 0 2588 0 1667 0 747 746 0 1667 0zm-390 752h780c293 0 532 237 532 525v778c0 289-239 525-532 525h-780c-293 0-532-236-532-525v-778c0-289 240-525 532-525zm385 421c285 0 516 231 516 516s-231 516-516 516-516-231-516-516 231-516 516-516zm0 174c188 0 341 153 341 341s-153 341-341 341c-189 0-341-153-341-341s153-341 341-341zm499-246c46 0 84 37 84 84 0 46-37 84-84 84-46 0-84-37-84-84 0-46 37-84 84-84zm-820-200h652c245 0 445 199 445 443v656c0 244-200 443-445 443h-652c-245 0-445-199-445-443v-656c0-244 200-443 445-443z" />
</svg>
